{"title":"The Adventures of Tintin 2011 CaM XviD - ILLUMINATI","uid":6810337,"size":1516237337,"categoryP":"video","categoryS":"movies","magnet":"?xt=urn:btih:fa1386da6040bcc15c31f7542bb64392d67a0f3e&amp;dn=The+Adventures+of+Tintin+2011+CaM+XviD+-+ILLUMINATI&amp;tr=udp%3A%2F%2Ftracker.openbittorrent.com%3A80&amp;tr=udp%3A%2F%2Fopen.demonii.com%3A1337&amp;tr=udp%3A%2F%2Ftracker.coppersurfer.tk%3A6969&amp;tr=udp%3A%2F%2Fexodus.desync.com%3A6969","seeders":0,"leechers":0,"uploader":"crazy-torrent","files":2,"time":1321017764,"description":" &lt;a href=&quot; http://www.scenespeeds.com/&quot; rel=&quot;nofollow&quot; target=&quot;_NEW&quot;&gt; http://www.scenespeeds.com/&lt;/a&gt;\n\n  |  | |  | |  | \n  |/\\| |/\\| |/\\|,\n  ~  ~ ~  ~ ~  ~~\n                  \n   _, __,  _, ___,\n  / ` |_) /_\\ ` / \n  \\ , | \\ | |  /  \n   ~  ~ ~ ~ ~ ~~~ \n                  \n , _    ___  _, __,\n \\ |     |  / \\ |_)\n  \\| ~~  |  \\ / | \\\n   )     ~   ~  ~ ~\n  ~'               \n  __, __, _, _ ___ \n  |_) |_  |\\ |  |  \n  | \\ |   | \\|  | ,\n  ~ ~ ~~~ ~  ~  ~ ~\n                   \n     _,  _, _, _\n    / ` / \\ |\\/|\n    \\ , \\ / |  |\nDescription\n\nThe Adventures of Tintin 2011 CaM XviD - ILLUMINATI &lt;a href=&quot;\nhttp://www.imdb.com/title/tt0983193/&quot; rel=&quot;nofollow&quot; target=&quot;_NEW&quot;&gt;\nhttp://www.imdb.com/title/tt0983193/&lt;/a&gt;\nPlot:\nTintin and Captain Haddock set off on a treasure\nhunt for a sunken ship commanded by Haddock's\nancestor. But someone else is in search\nof the ship.\nSources:\nVideo - TNZ (720p Files) - Thanks Guys\nAudio - ILLUMINATI - Thanks Bro\nInfo:\nVideo\nID : 0\nFormat : MPEG-4 Visual\nFormat profile : Advanced Simple@L5\nFormat settings, BVOP : 2\nFormat settings, QPel : No\nFormat settings, GMC : No warppoints\nFormat settings, Matrix : Default (H.263)\nCodec ID : XVID\nCodec ID/Hint : XviD\nDuration : 1h 39mn\nBit rate : 1 892 Kbps\nWidth : 720 pixels\nHeight : 304 pixels\nDisplay aspect ratio : 2.35:1\nFrame rate : 25.000 fps\nColor space : YUV\nChroma subsampling : 4:2:0\nBit depth : 8 bits\nScan type : Progressive\nCompression mode : Lossy\nBits/(Pixel*Frame) : 0.346\nStream size : 1.32 GiB (93%)\nAudio\nID : 1\nFormat : MPEG Audio\nFormat version : Version 1\nFormat profile : Layer 3\nMode : Joint stereo\nMode extension : MS Stereo\nCodec ID : 55\nCodec ID/Hint : MP3\nDuration : 1h 39mn\nBit rate mode : Constant\nBit rate : 128 Kbps\nChannel(s) : 2 channels\nSampling rate : 44.1 KHz\nCompression mode : Lossy\nStream size : 91.2 MiB (6%)\nAlignment : Aligned on interleaves\nInterleave, duration : 40 ms (1.00 video frame)\nWriting library : LAME3.98r\nEncoding settings : -m j -V 4 -q 2 -lowpass 17 -b 128\nRelease Notes:\nThe Adventures of Tintin 2011 CaM XviD - ILLUMINATI\nSo here we have it our release of Tin TIn.\nVideo is from the 720p files courtesy of TNZ so once\nagain guys a big thanks on another wonderful source\ntop work guys\nAudio is from &quot;case&quot; cheers bro for going the\nxtra mile for the team and grabbing this nice cam audio\nfor us to use on this release\nDone our normal thing in regards to running filters\ntweaking RGB and adjusting a few other things ","torrent":{"xt":"urn:btih:fa1386da6040bcc15c31f7542bb64392d67a0f3e","amp;dn":"The+Adventures+of+Tintin+2011+CaM+XviD+-+ILLUMINATI","amp;tr":["udp%3A%2F%2Ftracker.openbittorrent.com%3A80","udp%3A%2F%2Fopen.demonii.com%3A1337","udp%3A%2F%2Ftracker.coppersurfer.tk%3A6969","udp%3A%2F%2Fexodus.desync.com%3A6969"],"infoHash":"fa1386da6040bcc15c31f7542bb64392d67a0f3e","infoHashBuffer":{"type":"Buffer","data":[250,19,134,218,96,64,188,193,92,49,247,84,43,182,67,146,214,122,15,62]},"announce":[],"urlList":[]}}